<svg width="50" height="50" viewBox="0 0 120 120" xmlns="http://www.w3.org/2000/svg">

  <defs>
    <radialGradient id="bgGrad" cx="50%" cy="50%" r="70%">
      <stop offset="0%" stop-color="#3a3a3a"/>
      <stop offset="100%" stop-color="#1e1e1e"/>
    </radialGradient>
    <radialGradient id="coffeeGrad" cx="50%" cy="50%" r="65%">
      <stop offset="0%" stop-color="#6f4e37"/>
      <stop offset="100%" stop-color="#3b2a1a"/>
    </radialGradient>
  </defs>


  <rect width="120" height="120" rx="25" fill="url(#bgGrad)" />


  <ellipse cx="60" cy="95" rx="40" ry="10" fill="rgba(0,0,0,0.35)" />


  <path d="M30 40 
           Q60 30 90 40 
           L90 80 
           Q60 95 30 80 Z" 
        fill="#fff" stroke="#ddd" stroke-width="2"/>


  <ellipse cx="60" cy="40" rx="30" ry="10" fill="#fff" stroke="#ddd" stroke-width="2"/>


  <path d="M90 50 Q105 55 105 65 Q105 75 90 80" 
        fill="none" stroke="#fff" stroke-width="5"/>


  <ellipse cx="60" cy="40" rx="27" ry="8" fill="url(#coffeeGrad)" />


  <g stroke="#bbb" stroke-width="2" stroke-linecap="round" fill="none" opacity="0.9">
    <path d="M50 30 C 45 20, 55 10, 50 0">
      <animateTransform attributeName="transform" type="translate" values="0 0; 0 -8; 0 0" dur="2.5s" repeatCount="indefinite" />
      <animate attributeName="opacity" values="0;1;0" dur="2.5s" repeatCount="indefinite" />
    </path>
    <path d="M60 28 C 55 18, 65 8, 60 -2">
      <animateTransform attributeName="transform" type="translate" values="0 0; 0 -6; 0 0" dur="2.2s" begin="0.5s" repeatCount="indefinite" />
      <animate attributeName="opacity" values="0;1;0" dur="2.2s" begin="0.5s" repeatCount="indefinite" />
    </path>
    <path d="M70 32 C 65 22, 75 12, 70 2">
      <animateTransform attributeName="transform" type="translate" values="0 0; 0 -7; 0 0" dur="2.8s" begin="1s" repeatCount="indefinite" />
      <animate attributeName="opacity" values="0;1;0" dur="2.8s" begin="1s" repeatCount="indefinite" />
    </path>
  </g>
</svg>

